<svg width="24" height="24" viewBox="0 0 24 24" fill="none" xmlns="http://www.w3.org/2000/svg">
<rect x="3.00006" y="3" width="18" height="18" rx="4" fill="url(#paint0_linear_2_2223)"/>
<path d="M18.2745 12.0844C18.2465 11.3257 17.6094 10.7331 16.8484 10.7589C16.5111 10.7706 16.1903 10.9087 15.9467 11.1405C14.874 10.41 13.614 10.0094 12.3188 9.98135L12.9301 7.04209L14.9466 7.46603C15.0028 7.98362 15.4666 8.35825 15.9842 8.30209C16.5018 8.24578 16.8764 7.78216 16.8202 7.26457C16.7639 6.74697 16.3003 6.3722 15.7827 6.42851C15.4852 6.45899 15.2183 6.6323 15.0706 6.88979L12.7615 6.42851C12.6046 6.39335 12.4477 6.49168 12.4125 6.65098V6.65565L11.7169 9.92504C10.4054 9.94619 9.1291 10.349 8.04228 11.0844C7.48967 10.5644 6.61845 10.5903 6.09852 11.1453C5.57859 11.698 5.60428 12.5692 6.15936 13.0891C6.26703 13.1899 6.39117 13.2766 6.52932 13.3374C6.51999 13.4755 6.51999 13.6137 6.52932 13.752C6.52932 15.8621 8.98848 17.5788 12.0214 17.5788C15.0543 17.5788 17.5135 15.8644 17.5135 13.752C17.5228 13.6137 17.5228 13.4755 17.5135 13.3374C17.9866 13.1009 18.284 12.6138 18.2745 12.0844ZM8.85266 13.0283C8.85266 12.5083 9.27659 12.0844 9.79652 12.0844C10.3164 12.0844 10.7404 12.5083 10.7404 13.0283C10.7404 13.5482 10.3164 13.9721 9.79652 13.9721C9.27426 13.9675 8.85266 13.5482 8.85266 13.0283ZM14.3259 15.6186C13.6562 16.122 12.8364 16.3796 11.998 16.3446C11.1595 16.3796 10.3398 16.122 9.67004 15.6186C9.58105 15.5108 9.59739 15.3493 9.7052 15.2601C9.79886 15.183 9.93234 15.183 10.0283 15.2601C10.5951 15.6747 11.286 15.8855 11.9886 15.8527C12.6911 15.8902 13.3845 15.6887 13.9583 15.279C14.0613 15.1783 14.2299 15.1806 14.3306 15.2836C14.4314 15.3868 14.429 15.5553 14.3259 15.6561V15.6186ZM14.1573 14.005C13.6373 14.005 13.2135 13.581 13.2135 13.0611C13.2135 12.5412 13.6373 12.1172 14.1573 12.1172C14.6772 12.1172 15.1011 12.5412 15.1011 13.0611C15.1223 13.581 14.717 14.019 14.1971 14.04C14.1808 14.04 14.1667 14.04 14.1503 14.04L14.1573 14.005Z" fill="white"/>
<defs>
<linearGradient id="paint0_linear_2_2223" x1="12.0001" y1="3" x2="12.0001" y2="21" gradientUnits="userSpaceOnUse">
<stop stop-color="#FF4501"/>
<stop offset="1" stop-color="#EF3E01"/>
</linearGradient>
</defs>
</svg>
