<svg width="24" height="24" viewBox="0 0 24 24" fill="none" xmlns="http://www.w3.org/2000/svg">
<path d="M17.0092 21H6.99082C4.78672 21 3 19.2133 3 17.0092V6.99082C3 4.78672 4.78672 3 6.99082 3H17.0092C19.2133 3 21.0001 4.78672 21.0001 6.99082V17.0092C21 19.2133 19.2133 21 17.0092 21Z" fill="#41A0D7"/>
<path d="M11.8438 6.9375C8.8247 6.9375 6.37717 9.19171 6.37717 11.9723C6.37717 13.4386 7.05797 14.7583 8.14407 15.6785L8.28723 17.7066C8.29143 17.7658 8.32575 17.8188 8.37821 17.8466C8.43067 17.8745 8.49371 17.8735 8.54516 17.844L10.3389 16.8139C10.817 16.9397 11.3218 17.0072 11.8438 17.0072C14.8629 17.0072 17.3105 14.753 17.3105 11.9723C17.3104 9.19165 14.8629 6.93744 11.8438 6.9375Z" fill="white"/>
<path d="M7.80443 19.4598L7.53922 18.57L7.90901 18.4597L8.03739 18.8905L8.43098 18.6733L8.61742 19.0112L7.80443 19.4598Z" fill="#C8E6EB"/>
<path d="M9.10781 18.7408L8.92137 18.4029L10.126 17.7382L10.1984 17.7553C10.2295 17.7626 10.2608 17.7698 10.2921 17.7766L10.2265 18.074L10.2474 18.112L10.2139 18.1305L10.2089 18.1535C10.2001 18.1516 10.1915 18.1496 10.1828 18.1477L9.10781 18.7408ZM11.844 18.3308C11.4858 18.3308 11.1259 18.3056 10.7744 18.2558L10.8285 17.8737C11.2748 17.9369 11.737 17.9582 12.1889 17.9368L12.2071 18.3222C12.0871 18.3279 11.9648 18.3308 11.844 18.3308ZM12.7794 18.2736L12.7323 17.8906C13.1847 17.8348 13.6316 17.7355 14.0604 17.5954L14.1803 17.9622C13.7279 18.11 13.2565 18.2147 12.7794 18.2736ZM7.3759 18.0222L6.97604 16.6802L7.34583 16.57L7.74569 17.912L7.3759 18.0222ZM14.7194 17.7623L14.5711 17.406C14.992 17.2308 15.3945 17.0137 15.7677 16.7608L15.9842 17.0802C15.5896 17.3477 15.1641 17.5772 14.7194 17.7623ZM16.4473 16.7375L16.2051 16.4371C16.5608 16.1503 16.8838 15.8278 17.1649 15.4786L17.4655 15.7207C17.167 16.0914 16.8244 16.4335 16.4473 16.7375ZM6.74789 16.299C6.40144 15.9596 6.0943 15.5851 5.83502 15.1859L6.15868 14.9757C6.40256 15.3513 6.69162 15.7037 7.01792 16.0234L6.74789 16.299ZM17.8072 15.2557L17.4863 15.0413C17.7393 14.6626 17.9469 14.2579 18.1034 13.8387L18.4649 13.9736C18.2981 14.4207 18.0767 14.8521 17.8072 15.2557ZM5.54293 14.6877C5.31708 14.2585 5.14313 13.8054 5.02578 13.3411L5.39994 13.2465C5.50979 13.6813 5.67283 14.1057 5.88446 14.5079L5.54293 14.6877ZM18.6409 13.4231L18.2681 13.3233C18.3846 12.8883 18.4484 12.4388 18.4578 11.9871L18.8436 11.9952C18.8335 12.4778 18.7653 12.9582 18.6409 13.4231ZM4.91129 12.774C4.86594 12.4759 4.84293 12.171 4.84293 11.8676C4.84293 11.689 4.85093 11.5086 4.86661 11.3317L5.25102 11.3658C5.23629 11.5315 5.22879 11.7003 5.22879 11.8676C5.22879 12.1516 5.25029 12.437 5.29273 12.716L4.91129 12.774ZM18.4434 11.4461C18.4099 10.9965 18.322 10.5509 18.182 10.1214L18.5489 10.0018C18.6984 10.4607 18.7925 10.937 18.8283 11.4174L18.4434 11.4461ZM5.32486 10.8299L4.94561 10.7589C5.0339 10.2873 5.17969 9.82449 5.37889 9.38314L5.7306 9.54187C5.54405 9.95517 5.40756 10.3886 5.32486 10.8299ZM17.9898 9.61516C17.8115 9.20488 17.5831 8.81123 17.3111 8.44525L17.6208 8.21503C17.9103 8.60464 18.1535 9.02393 18.3436 9.46119L17.9898 9.61516ZM5.97628 9.05892L5.64086 8.86823C5.87617 8.45426 6.16143 8.06263 6.48861 7.7042L6.77359 7.96437C6.46577 8.30158 6.19743 8.66987 5.97628 9.05892ZM16.9684 8.02439C16.6703 7.68936 16.3325 7.38266 15.9642 7.11292L16.1921 6.80168C16.5824 7.08744 16.9405 7.41256 17.2567 7.76791L16.9684 8.02439ZM7.15699 7.57918L6.89536 7.29555C7.24534 6.97272 7.6331 6.68344 8.04797 6.43586L8.24572 6.76731C7.85369 7.00117 7.48737 7.27433 7.15699 7.57918ZM15.5125 6.80975C15.1282 6.57404 14.7164 6.37512 14.2884 6.21869L14.4209 5.85628C14.873 6.0215 15.3081 6.23168 15.7142 6.48082L15.5125 6.80975ZM8.72396 6.50736L8.55353 6.16125C8.98105 5.95073 9.43337 5.78115 9.89795 5.65736L9.99733 6.03024C9.55727 6.14747 9.1288 6.30804 8.72396 6.50736ZM13.7699 6.05185C13.3352 5.93058 12.8844 5.85046 12.43 5.81373L12.461 5.4291C12.94 5.46773 13.4153 5.55222 13.8736 5.68015L13.7699 6.05185ZM10.529 5.91031L10.4587 5.53088C10.9117 5.4469 11.3778 5.4043 11.844 5.4043L11.8869 5.40441L11.8854 5.79027L11.8441 5.79016C11.4012 5.79022 10.9588 5.8307 10.529 5.91031Z" fill="#C8E6EB"/>
</svg>
