<svg width="24" height="24" viewBox="0 0 24 24" fill="none" xmlns="http://www.w3.org/2000/svg">
<path d="M17.0059 20.9904L7.01117 20.9999C4.81233 21.0019 3.01178 19.2048 3.00928 17.006L2.99979 7.01126C2.99779 4.81242 4.79484 3.01187 6.99368 3.00937L16.9884 2.99988C19.1872 2.99788 20.9878 4.79493 20.9903 6.99377L20.9998 16.9885C21.0023 19.1878 19.2047 20.9884 17.0059 20.9904Z" fill="url(#paint0_linear_2_2181)"/>
<path opacity="0.07" d="M7.30663 10.2526C7.22263 10.2526 7.13563 10.2721 7.05512 10.3126C6.92263 10.3786 6.82363 10.4926 6.77663 10.6331C6.70113 10.8596 6.77863 11.1081 6.96963 11.2511L8.80762 12.3991L8.73612 12.5901C8.70312 12.6796 7.90112 14.7916 6.38463 15.6186C6.30413 15.6626 6.25263 15.7216 6.24763 15.7771C6.24213 15.8331 6.28663 15.8836 6.32513 15.9156C6.65313 16.1901 6.99213 16.3851 7.66762 16.5091L7.87213 16.5466L7.87262 16.7546C7.87362 17.0586 7.97013 17.3801 8.06013 17.3801C8.50662 17.3801 9.43562 17.3801 10.3641 17.8441C10.8791 18.1016 11.6001 18.2556 11.9996 18.2556C12.3991 18.2556 13.1201 18.1016 13.6351 17.8441C14.5631 17.3801 15.4926 17.3801 15.9391 17.3801C16.0296 17.3801 16.1261 17.0586 16.1266 16.7546L16.1271 16.5466L16.3316 16.5091C17.0071 16.3856 17.3461 16.1906 17.6746 15.9156C17.7131 15.8836 17.7576 15.8331 17.7521 15.7771C17.7466 15.7216 17.6951 15.6626 17.6151 15.6186C16.0991 14.7916 15.2971 12.6796 15.2636 12.5901L15.1921 12.3991L17.0471 11.2391C17.2206 11.1076 17.2981 10.8596 17.2226 10.6331C17.1761 10.4926 17.0771 10.3791 16.9446 10.3126C16.8126 10.2461 16.6626 10.2361 16.5216 10.2826L15.2486 10.8036V9.05005C15.2486 7.23205 13.7916 5.75305 12.0006 5.75305C10.2076 5.75305 8.75062 7.23205 8.75062 9.05005V10.8041L7.46263 10.2776C7.41413 10.2611 7.36112 10.2526 7.30663 10.2526Z" fill="black"/>
<path opacity="0.07" d="M12 18.5053C12.434 18.5053 13.1935 18.3443 13.747 18.0678C14.6225 17.6303 15.5015 17.6303 15.939 17.6303C16.3765 17.6303 16.3765 16.7548 16.3765 16.7548C17.072 16.6278 17.4545 16.4258 17.835 16.1073C18.1005 15.8848 18.0385 15.5648 17.7345 15.3993C16.283 14.6078 15.4975 12.5028 15.4975 12.5028L17.1795 11.4508C17.4565 11.2433 17.569 10.8818 17.46 10.5533C17.3195 10.1318 16.8635 9.90431 16.4425 10.0453L15.499 10.4308V9.04981C15.499 7.11781 13.933 5.50281 12.001 5.50281H11.999C10.067 5.50281 8.50103 7.11781 8.50103 9.04981V10.4313L7.55753 10.0458C7.13603 9.90481 6.68053 10.1323 6.54003 10.5538C6.43053 10.8818 6.54353 11.2433 6.82053 11.4513L8.50253 12.5033C8.50253 12.5033 7.71753 14.6078 6.26553 15.3998C5.96154 15.5653 5.89953 15.8858 6.16503 16.1078C6.54503 16.4263 6.92803 16.6283 7.62353 16.7553C7.62353 16.7553 7.62353 17.6308 8.06103 17.6308C8.49853 17.6308 9.37753 17.6308 10.253 18.0683C10.8065 18.3443 11.566 18.5053 12 18.5053Z" stroke="black" stroke-width="3"/>
<path d="M12 18.5053C12.434 18.5053 13.1935 18.3443 13.747 18.0678C14.6225 17.6303 15.5015 17.6303 15.939 17.6303C16.3765 17.6303 16.3765 16.7548 16.3765 16.7548C17.072 16.6278 17.4545 16.4258 17.835 16.1073C18.1005 15.8848 18.0385 15.5648 17.7345 15.3993C16.283 14.6078 15.4975 12.5028 15.4975 12.5028L17.1795 11.4508C17.4565 11.2433 17.569 10.8818 17.46 10.5533C17.3195 10.1318 16.8635 9.90431 16.4425 10.0453L15.499 10.4308V9.04981C15.499 7.11781 13.933 5.50281 12.001 5.50281H11.999C10.067 5.50281 8.50103 7.11781 8.50103 9.04981V10.4313L7.55753 10.0458C7.13603 9.90481 6.68053 10.1323 6.54003 10.5538C6.43053 10.8818 6.54353 11.2433 6.82053 11.4513L8.50253 12.5033C8.50253 12.5033 7.71753 14.6078 6.26553 15.3998C5.96154 15.5653 5.89953 15.8858 6.16503 16.1078C6.54503 16.4263 6.92803 16.6283 7.62353 16.7553C7.62353 16.7553 7.62353 17.6308 8.06103 17.6308C8.49853 17.6308 9.37753 17.6308 10.253 18.0683C10.8065 18.3443 11.566 18.5053 12 18.5053Z" fill="white"/>
<defs>
<linearGradient id="paint0_linear_2_2181" x1="10.3014" y1="2.36571" x2="13.6986" y2="21.6345" gradientUnits="userSpaceOnUse">
<stop stop-color="#FEDE00"/>
<stop offset="1" stop-color="#FFD000"/>
</linearGradient>
</defs>
</svg>
