<svg width="24" height="24" viewBox="0 0 24 24" fill="none" xmlns="http://www.w3.org/2000/svg">
<path fill-rule="evenodd" clip-rule="evenodd" d="M5.452 3H18.5475C19.902 3 21 4.098 21 5.452V18.5475C21 19.902 19.902 21 18.548 21H5.452C4.098 21 3 19.902 3 18.548V5.452C3 4.098 4.098 3 5.452 3Z" fill="#212121"/>
<path fill-rule="evenodd" clip-rule="evenodd" d="M14.6041 10.3034C15.3921 10.8664 16.3576 11.1974 17.4001 11.1974V9.19186C17.2026 9.19186 17.0061 9.17136 16.8131 9.13036V10.7089C15.7706 10.7089 14.8056 10.3774 14.0171 9.81486V13.9069C14.0171 15.9539 12.3566 17.6134 10.3086 17.6134C9.54461 17.6134 8.83411 17.3824 8.24411 16.9864C8.91761 17.6744 9.85661 18.1014 10.8956 18.1014C12.9436 18.1014 14.6041 16.4419 14.6041 14.3949V10.3034ZM15.3286 8.28036C14.9261 7.84086 14.6616 7.27236 14.6041 6.64386V6.38586H14.0476C14.1876 7.18436 14.6656 7.86686 15.3286 8.28036ZM9.53961 15.4159C9.31461 15.1209 9.19311 14.7604 9.19361 14.3894C9.19361 13.4529 9.95311 12.6939 10.8901 12.6939C11.0646 12.6939 11.2381 12.7204 11.4046 12.7734V10.7234C11.2101 10.6969 11.0141 10.6854 10.8176 10.6894V12.2849C10.6511 12.2319 10.4776 12.2054 10.3026 12.2054C9.36561 12.2054 8.60611 12.9644 8.60611 13.9009C8.60661 14.5634 8.98611 15.1369 9.53961 15.4159Z" fill="#EC407A"/>
<path fill-rule="evenodd" clip-rule="evenodd" d="M14.0171 9.81487C14.8051 10.3779 15.7706 10.7089 16.8131 10.7089V9.13037C16.2311 9.00637 15.7161 8.70236 15.3286 8.27986C14.6656 7.86636 14.1881 7.18436 14.0481 6.38586H12.5866V14.3949C12.5831 15.3284 11.8251 16.0844 10.8901 16.0844C10.3391 16.0844 9.84958 15.8219 9.53958 15.4154C8.98608 15.1364 8.60658 14.5629 8.60658 13.9009C8.60658 12.9644 9.36608 12.2054 10.3031 12.2054C10.4826 12.2054 10.6556 12.2334 10.8181 12.2849V10.6899C8.80608 10.7314 7.18808 12.3744 7.18808 14.3954C7.18808 15.4044 7.59108 16.3189 8.24508 16.9869C8.83508 17.3829 9.54558 17.6139 10.3096 17.6139C12.3576 17.6139 14.0181 15.9544 14.0181 13.9074L14.0171 9.81487Z" fill="white"/>
<path fill-rule="evenodd" clip-rule="evenodd" d="M16.813 9.13108V8.70409C16.288 8.70509 15.774 8.55808 15.3285 8.28008C15.7225 8.71158 16.2415 9.00908 16.813 9.13108ZM14.0475 6.38608C14.034 6.30958 14.024 6.23308 14.017 6.15558V5.89758H11.999V13.9071C11.996 14.8406 11.2375 15.5966 10.3025 15.5966C10.028 15.5966 9.76898 15.5316 9.53948 15.4156C9.84948 15.8221 10.339 16.0846 10.89 16.0846C11.825 16.0846 12.583 15.3286 12.5865 14.3951V6.38608H14.0475ZM10.8175 10.6901V10.2356C10.649 10.2126 10.479 10.2011 10.3085 10.2011C8.25998 10.2011 6.59998 11.8606 6.59998 13.9076C6.59998 15.1911 7.25248 16.3221 8.24398 16.9871C7.58998 16.3191 7.18698 15.4046 7.18698 14.3956C7.18698 12.3746 8.80548 10.7316 10.8175 10.6901Z" fill="#81D4FA"/>
</svg>
