<svg width="24" height="24" viewBox="0 0 24 24" fill="none" xmlns="http://www.w3.org/2000/svg">
<path d="M12.0004 3.05005C10.8129 3.05005 7.19891 3.05005 5.20091 4.87435C4.01111 6.05965 3.45041 7.77235 3.45041 10.2501V11.6001C3.45041 14.0778 4.01111 15.7905 5.21486 16.9893C5.81426 17.536 6.63146 17.973 7.63046 18.2749L7.95041 18.3712V20.7688C7.95041 21.0501 8.03186 21.0501 8.05886 21.0501C8.11421 21.0501 8.20286 21.0325 8.37116 20.8831C8.41166 20.8431 8.70866 20.5218 10.1532 18.9036L10.299 18.7402L10.5172 18.7542C11.001 18.7843 11.5 18.8001 12.0004 18.8001C13.188 18.8001 16.8019 18.8001 18.7999 16.9753C19.9893 15.79 20.5504 14.0773 20.5504 11.6001V10.2501C20.5504 7.77235 19.9897 6.05965 18.786 4.86085C16.8019 3.05005 13.188 3.05005 12.0004 3.05005Z" fill="white"/>
<path d="M16.2536 13.7844C15.7536 13.3632 15.5228 13.2359 14.8325 12.8214C14.5449 12.6491 14.1066 12.5001 13.8767 12.5001C13.7196 12.5001 13.5315 12.6203 13.4163 12.7355C13.1211 13.0307 13.0244 13.4001 12.5069 13.4001C12.0006 13.4001 11.1164 12.8849 10.4819 12.2189C9.81587 11.5844 9.30062 10.7001 9.30062 10.1939C9.30062 9.67637 9.66332 9.57287 9.95852 9.27722C10.0737 9.16247 10.2006 8.97437 10.2006 8.81732C10.2006 8.58737 10.0517 8.15582 9.87932 7.86827C9.46486 7.17752 9.33797 6.94667 8.91632 6.44717C8.77366 6.27797 8.61122 6.20057 8.44111 6.20012C8.15356 6.19967 7.77601 6.34232 7.52041 6.53267C7.13611 6.81932 6.73426 7.20947 6.62671 7.69547C6.61231 7.76162 6.60376 7.82822 6.60106 7.89482C6.58036 8.40107 6.77926 8.91497 6.99391 9.35012C7.49926 10.3757 8.16796 11.3684 8.89562 12.2549C9.12827 12.5384 9.38162 12.8021 9.64397 13.0568C9.89867 13.3187 10.1624 13.572 10.4459 13.8051C11.3324 14.5328 12.3251 15.2015 13.3506 15.7068C13.7817 15.9192 14.2893 16.1145 14.7906 16.1001C14.8622 16.0979 14.9337 16.0898 15.0053 16.074C15.4913 15.9669 15.8814 15.5646 16.1681 15.1803C16.3584 14.9247 16.5011 14.5476 16.5006 14.2596C16.5002 14.0895 16.4228 13.9271 16.2536 13.7844ZM16.5006 11.6001C16.2522 11.6001 16.0506 11.3985 16.0506 11.1501V10.7001C16.0506 8.46722 14.2335 6.65012 12.0006 6.65012C11.7522 6.65012 11.5506 6.44852 11.5506 6.20012C11.5506 5.95172 11.7522 5.75012 12.0006 5.75012C14.7299 5.75012 16.9506 7.97087 16.9506 10.7001V11.1501C16.9506 11.3985 16.749 11.6001 16.5006 11.6001ZM13.7367 10.7001C13.5369 10.7001 13.3542 10.566 13.3016 10.3635C13.1783 9.89057 12.8093 9.52112 12.3381 9.39962C12.0974 9.33707 11.9529 9.09182 12.015 8.85107C12.0771 8.61077 12.3219 8.46632 12.5636 8.52797C13.3502 8.73182 13.9667 9.34787 14.1723 10.1363C14.2349 10.377 14.0909 10.6223 13.8506 10.6853C13.8123 10.6952 13.7741 10.7001 13.7367 10.7001Z" fill="#7E57C2"/>
<path d="M15.1502 11.1511C14.9018 11.1511 14.7002 10.9495 14.7002 10.7011C14.7002 9.26646 13.5779 8.08296 12.1451 8.00736C11.8967 7.99431 11.7063 7.78236 11.7194 7.53441C11.7324 7.28601 11.948 7.09521 12.1923 7.10871C14.1035 7.20951 15.6002 8.78766 15.6002 10.7011C15.6002 10.9495 15.3986 11.1511 15.1502 11.1511Z" fill="#7E57C2"/>
<path d="M12.0002 2.6001C9.97522 2.6001 6.81982 2.7864 4.89742 4.5423C3.53842 5.89545 3.00023 7.79355 3.00023 10.2501C3.00023 10.4535 2.99932 10.6803 3.00112 10.9251C2.99932 11.1694 3.00023 11.3962 3.00023 11.5996C3.00023 14.0562 3.53842 15.9543 4.89742 17.3074C5.62912 17.9757 6.54172 18.4153 7.50022 18.7051V20.7688C7.50022 21.487 7.97227 21.5001 8.05867 21.5001H8.06272C8.28502 21.4992 8.47718 21.3903 8.66978 21.2193C8.74223 21.1549 9.57877 20.2225 10.4887 19.2028C11.0305 19.2375 11.5453 19.2501 11.9998 19.2501C14.0248 19.2501 17.1797 19.0633 19.1026 17.3074C20.4611 15.9547 20.9998 14.0562 20.9998 11.5996C20.9998 11.3962 21.0007 11.1694 20.9989 10.9246C21.0007 10.6798 20.9998 10.4535 20.9998 10.2496C20.9998 7.7931 20.4616 5.895 19.1026 4.54185C17.1802 2.7864 14.0252 2.6001 12.0002 2.6001ZM19.6502 11.443V11.5996C19.6502 13.8073 19.18 15.3117 18.1715 16.33C16.4246 17.9001 13.0969 17.9001 11.9998 17.9001C11.6659 17.9001 11.1241 17.8996 10.4846 17.8551C10.3069 18.0549 8.40022 20.1874 8.40022 20.1874V17.5491C7.45342 17.3218 6.51788 16.9492 5.82893 16.3305C4.82048 15.3117 4.35022 13.8073 4.35022 11.5996V11.443C4.35022 11.2851 4.34977 11.1145 4.35112 10.9152C4.34977 10.7352 4.34977 10.5651 4.35022 10.4067V10.2501C4.35022 8.0424 4.82048 6.53805 5.82893 5.5197C7.57538 3.94965 10.9036 3.94965 12.0002 3.94965C13.0969 3.94965 16.4246 3.94965 18.1711 5.5197C19.18 6.53805 19.6498 8.0424 19.6498 10.2501V10.4067C19.6498 10.5646 19.6502 10.7352 19.6489 10.9345C19.6502 11.115 19.6502 11.2851 19.6502 11.443Z" fill="#7E57C2"/>
</svg>
