<svg width="26" height="29" viewBox="0 0 26 29" fill="none" xmlns="http://www.w3.org/2000/svg">
<g filter="url(#filter0_d_2_2209)">
<path fill-rule="evenodd" clip-rule="evenodd" d="M22 5.83406C22 5.05148 21.6828 4.34292 21.1699 3.83008C20.6571 3.31722 19.9485 3 19.1659 3H6.83407C6.05148 3 5.34294 3.31722 4.83009 3.83009C4.31722 4.34294 4 5.05148 4 5.83407V18.1659C4 18.9485 4.31721 19.6571 4.83006 20.1699C5.34291 20.6828 6.05146 21 6.83406 21H19.1659C19.9485 21 20.6571 20.6828 21.1699 20.1699C21.6828 19.6571 22 18.9485 22 18.1659V5.83407L22 5.83406Z" fill="#2DC100"/>
<path fill-rule="evenodd" clip-rule="evenodd" d="M15.0328 8.48685C14.4491 7.71825 13.6182 7.17322 12.6939 6.90008C11.7745 6.62842 10.7621 6.62574 9.80874 6.93979C9.08695 7.17759 8.46228 7.52944 7.96764 8.01628C7.50227 8.47434 7.15366 9.04998 6.9494 9.76023C6.72103 10.5545 6.75861 11.3381 7.03366 12.0529C7.30974 12.7705 7.82421 13.4164 8.54801 13.9318C8.62742 13.9884 8.67139 14.0355 8.68663 14.0827C8.7019 14.1301 8.69327 14.1939 8.66696 14.2822C8.59953 14.5082 8.55203 14.7421 8.50087 14.994C8.47798 15.1067 8.45434 15.2231 8.42987 15.3347L8.34977 15.7001L8.664 15.5019C8.81019 15.4098 8.92757 15.3346 9.04123 15.2618C9.34799 15.0653 9.6308 14.8842 9.90497 14.7282C9.94419 14.7059 9.99412 14.6908 10.0481 14.6815C10.1145 14.6702 10.1854 14.6688 10.2507 14.6743C10.5522 14.6999 10.8404 14.7379 11.1425 14.7777C11.2999 14.7985 11.46 14.8196 11.5252 14.8278L11.7158 14.8515L11.6996 14.6587C11.65 14.0678 11.7154 13.5353 11.8922 13.0547C12.0689 12.5742 12.3573 12.1434 12.7536 11.7558C13.1469 11.3709 13.5861 11.0932 14.0665 10.9043C14.5495 10.7144 15.075 10.6138 15.638 10.5841L15.8 10.5756L15.7849 10.4132C15.7506 10.0422 15.6683 9.6999 15.5417 9.38066C15.415 9.06129 15.2443 8.76527 15.0328 8.48687V8.48685ZM13.0832 9.25561C13.269 9.25407 13.4372 9.32655 13.5598 9.44592C13.683 9.56591 13.7604 9.73308 13.7637 9.92016V9.92078L13.7638 9.92614V9.92675C13.7656 10.1183 13.6937 10.289 13.5732 10.4129C13.4529 10.5365 13.285 10.6124 13.0946 10.6147C12.9053 10.617 12.734 10.5446 12.609 10.4248C12.4832 10.3042 12.4044 10.1355 12.401 9.94614C12.3977 9.76198 12.4744 9.59022 12.5982 9.46429C12.7208 9.33967 12.8911 9.25913 13.0765 9.25569H13.0771L13.0826 9.25561H13.0832V9.25561ZM10.2621 9.47192C10.3829 9.59873 10.4569 9.76993 10.4516 9.95167V9.95228L10.4515 9.95665V9.95726C10.4444 10.1441 10.3615 10.3107 10.2329 10.4292C10.1055 10.5468 9.93316 10.617 9.74612 10.6123H9.7455L9.74316 10.6122C9.55434 10.6066 9.38787 10.5277 9.26957 10.4026C9.15114 10.2775 9.08144 10.1067 9.08622 9.91734L9.08628 9.91503V9.91442C9.09183 9.72533 9.17269 9.55763 9.29957 9.43876C9.42594 9.32036 9.59786 9.2503 9.78615 9.25588H9.78677L9.79148 9.25604H9.79209C9.97497 9.26315 10.1423 9.34629 10.2621 9.47192V9.47192Z" fill="#FFFFFE"/>
<path fill-rule="evenodd" clip-rule="evenodd" d="M18.6462 12.3516C18.087 11.6306 17.2228 11.183 16.2985 11.0454C15.372 10.9075 14.3876 11.0812 13.5909 11.6032C13.3268 11.7761 13.098 11.9697 12.9049 12.1785C12.4356 12.6858 12.1681 13.2879 12.1113 13.9048C12.0547 14.5205 12.2083 15.1527 12.581 15.7216C12.7294 15.9481 12.9113 16.1637 13.127 16.3632C13.5307 16.7365 13.977 17.0002 14.4586 17.1573C14.9483 17.317 15.4754 17.3668 16.0324 17.3098C16.1727 17.2954 16.3229 17.2523 16.4719 17.2096C16.7066 17.1422 16.9389 17.0755 17.1815 17.1008C17.4619 17.1301 17.7144 17.263 17.9741 17.4C17.8835 17.1951 17.8704 17.0169 17.923 16.8454C17.9813 16.6551 18.1196 16.488 18.3209 16.3093C18.9091 15.7876 19.2328 15.1159 19.2905 14.4193C19.349 13.7138 19.1348 12.9814 18.6462 12.3515L18.6462 12.3516ZM16.331 12.7593C16.4377 12.6565 16.5824 12.5932 16.7394 12.5943H16.74L16.7567 12.5946H16.7574C16.9171 12.6005 17.0595 12.6699 17.1615 12.7783C17.2627 12.8859 17.3242 13.0322 17.3231 13.1926L17.3228 13.2113C17.3169 13.3718 17.2499 13.5133 17.144 13.6147C17.0379 13.7162 16.8936 13.7773 16.7332 13.7767C16.7233 13.7767 16.7157 13.7766 16.7105 13.7764C16.5521 13.77 16.4113 13.7018 16.3102 13.5951C16.2094 13.4888 16.1481 13.3444 16.1485 13.1856C16.1485 13.1757 16.1487 13.1679 16.1489 13.1624C16.1552 13.0045 16.2245 12.8619 16.331 12.7593V12.7593ZM14.0424 12.5937C14.2026 12.5998 14.3462 12.6691 14.4494 12.7766C14.5525 12.8842 14.6158 13.0303 14.6153 13.1901V13.1907C14.6153 13.1997 14.6151 13.2066 14.6149 13.2113C14.6087 13.3705 14.5395 13.5129 14.4318 13.6153C14.3245 13.7173 14.1786 13.7798 14.0187 13.7797C13.8592 13.7795 13.7131 13.7157 13.6058 13.6127C13.4984 13.5097 13.4293 13.3666 13.4236 13.2078C13.4234 13.2018 13.4233 13.1941 13.4234 13.185C13.4241 13.0272 13.4893 12.8819 13.5935 12.7752C13.6977 12.6684 13.8415 12.5992 13.9993 12.5936C14.0053 12.5934 14.0131 12.5933 14.0224 12.5933L14.0424 12.5937V12.5937Z" fill="#FFFFFE"/>
</g>
<defs>
<filter id="filter0_d_2_2209" x="-3" y="0" width="32" height="32" filterUnits="userSpaceOnUse" color-interpolation-filters="sRGB">
<feFlood flood-opacity="0" result="BackgroundImageFix"/>
<feColorMatrix in="SourceAlpha" type="matrix" values="0 0 0 0 0 0 0 0 0 0 0 0 0 0 0 0 0 0 127 0" result="hardAlpha"/>
<feOffset dy="4"/>
<feGaussianBlur stdDeviation="2"/>
<feComposite in2="hardAlpha" operator="out"/>
<feColorMatrix type="matrix" values="0 0 0 0 0 0 0 0 0 0 0 0 0 0 0 0 0 0 0.25 0"/>
<feBlend mode="normal" in2="BackgroundImageFix" result="effect1_dropShadow_2_2209"/>
<feBlend mode="normal" in="SourceGraphic" in2="effect1_dropShadow_2_2209" result="shape"/>
</filter>
</defs>
</svg>
